<svg width="98" height="99" viewBox="0 0 98 99" fill="none" xmlns="http://www.w3.org/2000/svg">
<path d="M96.1037 49.3813C96.1037 75.8448 74.9461 97.2626 48.8897 97.2626C22.8333 97.2626 1.67566 75.8448 1.67566 49.3813C1.67566 22.9179 22.8333 1.5 48.8897 1.5C74.9461 1.5 96.1037 22.9179 96.1037 49.3813Z" fill="#2C7250" stroke="white" stroke-width="3"/>
<g clip-path="url(#clip0_2_33)">
<path d="M52.2227 66.0101L47.4579 61.4201L43.0187 57.1601L48.9377 56.2901L55.5964 55.3301L56.4547 53.6201H56.3955C55.7162 53.6204 55.0576 53.3838 54.53 52.9501C54.0024 52.5164 53.6381 51.9119 53.4982 51.2381C53.4952 49.3871 55.8628 49.9871 57.7273 46.8671C57.964 46.8071 66.0729 24.9971 49.5 24.9971C32.927 24.9971 41.0359 46.8071 41.0359 46.8071C42.9004 49.8071 45.2975 49.3571 45.2679 51.1571C45.2383 52.9571 43.0779 53.5571 41.0359 53.7671C37.6621 54.1571 34.7027 53.3771 31.7432 59.0471C29.9675 62.3171 29.2277 72.9971 29.2277 72.9971H51.0093V72.4871L52.2227 66.0101ZM60.5091 73.0001H62.1664L61.3378 72.5801L60.5091 73.0001Z" fill="white"/>
<path d="M61.3378 69.19L68.6477 73L67.2568 64.93L73.1757 59.23L65.0076 58.06L61.3378 50.71L57.6681 58.06L49.5 59.23L55.4189 64.93L54.028 73L61.3378 69.19Z" fill="white"/>
</g>
<defs>
<clipPath id="clip0_2_33">
<rect width="47.3514" height="48" fill="white" transform="translate(25.8243 25)"/>
</clipPath>
</defs>
</svg>
